<svg xmlns="http://www.w3.org/2000/svg" width="297mm" height="210mm" viewBox="0 0 842 595"><rect x="0" y="0" width="842" height="595" fill="#FFFFFF"/><g transform="translate(20.00,131.29) scale(0.5812)"><text x="20.0" y="32.0" font-family="Noto Sans CJK KR" font-size="19" fill="#2C2C2A" text-anchor="start" font-weight="500">알파학원 입시 트랙 로드맵 (월별)</text><text x="20.0" y="86.0" font-family="Noto Sans CJK KR" font-size="12" fill="#2C2C2A" text-anchor="start" font-weight="500">특화 과정</text><rect x="150.0" y="72.0" width="20.0" height="20.0" fill="#EEF4EC"/><text x="160.0" y="85.0" font-family="Noto Sans CJK KR" font-size="8" fill="#6B6A64" text-anchor="middle" font-weight="400">3</text><rect x="170.0" y="72.0" width="20.0" height="20.0" fill="#EEF4EC"/><text x="180.0" y="85.0" font-family="Noto Sans CJK KR" font-size="8" fill="#6B6A64" text-anchor="middle" font-weight="400">4</text><rect x="190.0" y="72.0" width="20.0" height="20.0" fill="#EEF4EC"/><text x="200.0" y="85.0" font-family="Noto Sans CJK KR" font-size="8" fill="#6B6A64" text-anchor="middle" font-weight="400">5</text><rect x="210.0" y="72.0" width="20.0" height="20.0" fill="#FBF1E9"/><text x="220.0" y="85.0" font-family="Noto Sans CJK KR" font-size="8" fill="#6B6A64" text-anchor="middle" font-weight="400">6</text><rect x="230.0" y="72.0" width="20.0" height="20.0" fill="#FBF1E9"/><text x="240.0" y="85.0" font-family="Noto Sans CJK KR" font-size="8" fill="#6B6A64" text-anchor="middle" font-weight="400">7</text><rect x="250.0" y="72.0" width="20.0" height="20.0" fill="#FBF1E9"/><text x="260.0" y="85.0" font-family="Noto Sans CJK KR" font-size="8" fill="#6B6A64" text-anchor="middle" font-weight="400">8</text><rect x="270.0" y="72.0" width="20.0" height="20.0" fill="#F4F0E7"/><text x="280.0" y="85.0" font-family="Noto Sans CJK KR" font-size="8" fill="#6B6A64" text-anchor="middle" font-weight="400">9</text><rect x="290.0" y="72.0" width="20.0" height="20.0" fill="#F4F0E7"/><text x="300.0" y="85.0" font-family="Noto Sans CJK KR" font-size="8" fill="#6B6A64" text-anchor="middle" font-weight="400">10</text><rect x="310.0" y="72.0" width="20.0" height="20.0" fill="#F4F0E7"/><text x="320.0" y="85.0" font-family="Noto Sans CJK KR" font-size="8" fill="#6B6A64" text-anchor="middle" font-weight="400">11</text><rect x="330.0" y="72.0" width="20.0" height="20.0" fill="#ECF0F6"/><text x="340.0" y="85.0" font-family="Noto Sans CJK KR" font-size="8" fill="#6B6A64" text-anchor="middle" font-weight="400">12</text><rect x="350.0" y="72.0" width="20.0" height="20.0" fill="#ECF0F6"/><text x="360.0" y="85.0" font-family="Noto Sans CJK KR" font-size="8" fill="#6B6A64" text-anchor="middle" font-weight="400">1</text><rect x="370.0" y="72.0" width="20.0" height="20.0" fill="#ECF0F6"/><text x="380.0" y="85.0" font-family="Noto Sans CJK KR" font-size="8" fill="#6B6A64" text-anchor="middle" font-weight="400">2</text><rect x="390.0" y="72.0" width="20.0" height="20.0" fill="#EEF4EC"/><text x="400.0" y="85.0" font-family="Noto Sans CJK KR" font-size="8" fill="#6B6A64" text-anchor="middle" font-weight="400">3</text><rect x="410.0" y="72.0" width="20.0" height="20.0" fill="#EEF4EC"/><text x="420.0" y="85.0" font-family="Noto Sans CJK KR" font-size="8" fill="#6B6A64" text-anchor="middle" font-weight="400">4</text><rect x="430.0" y="72.0" width="20.0" height="20.0" fill="#EEF4EC"/><text x="440.0" y="85.0" font-family="Noto Sans CJK KR" font-size="8" fill="#6B6A64" text-anchor="middle" font-weight="400">5</text><rect x="450.0" y="72.0" width="20.0" height="20.0" fill="#FBF1E9"/><text x="460.0" y="85.0" font-family="Noto Sans CJK KR" font-size="8" fill="#6B6A64" text-anchor="middle" font-weight="400">6</text><rect x="470.0" y="72.0" width="20.0" height="20.0" fill="#FBF1E9"/><text x="480.0" y="85.0" font-family="Noto Sans CJK KR" font-size="8" fill="#6B6A64" text-anchor="middle" font-weight="400">7</text><rect x="490.0" y="72.0" width="20.0" height="20.0" fill="#FBF1E9"/><text x="500.0" y="85.0" font-family="Noto Sans CJK KR" font-size="8" fill="#6B6A64" text-anchor="middle" font-weight="400">8</text><rect x="510.0" y="72.0" width="20.0" height="20.0" fill="#F4F0E7"/><text x="520.0" y="85.0" font-family="Noto Sans CJK KR" font-size="8" fill="#6B6A64" text-anchor="middle" font-weight="400">9</text><rect x="530.0" y="72.0" width="20.0" height="20.0" fill="#F4F0E7"/><text x="540.0" y="85.0" font-family="Noto Sans CJK KR" font-size="8" fill="#6B6A64" text-anchor="middle" font-weight="400">10</text><rect x="550.0" y="72.0" width="20.0" height="20.0" fill="#F4F0E7"/><text x="560.0" y="85.0" font-family="Noto Sans CJK KR" font-size="8" fill="#6B6A64" text-anchor="middle" font-weight="400">11</text><rect x="570.0" y="72.0" width="20.0" height="20.0" fill="#ECF0F6"/><text x="580.0" y="85.0" font-family="Noto Sans CJK KR" font-size="8" fill="#6B6A64" text-anchor="middle" font-weight="400">12</text><rect x="590.0" y="72.0" width="20.0" height="20.0" fill="#ECF0F6"/><text x="600.0" y="85.0" font-family="Noto Sans CJK KR" font-size="8" fill="#6B6A64" text-anchor="middle" font-weight="400">1</text><rect x="610.0" y="72.0" width="20.0" height="20.0" fill="#ECF0F6"/><text x="620.0" y="85.0" font-family="Noto Sans CJK KR" font-size="8" fill="#6B6A64" text-anchor="middle" font-weight="400">2</text><rect x="630.0" y="72.0" width="20.0" height="20.0" fill="#EEF4EC"/><text x="640.0" y="85.0" font-family="Noto Sans CJK KR" font-size="8" fill="#6B6A64" text-anchor="middle" font-weight="400">3</text><rect x="650.0" y="72.0" width="20.0" height="20.0" fill="#EEF4EC"/><text x="660.0" y="85.0" font-family="Noto Sans CJK KR" font-size="8" fill="#6B6A64" text-anchor="middle" font-weight="400">4</text><rect x="670.0" y="72.0" width="20.0" height="20.0" fill="#EEF4EC"/><text x="680.0" y="85.0" font-family="Noto Sans CJK KR" font-size="8" fill="#6B6A64" text-anchor="middle" font-weight="400">5</text><rect x="690.0" y="72.0" width="20.0" height="20.0" fill="#FBF1E9"/><text x="700.0" y="85.0" font-family="Noto Sans CJK KR" font-size="8" fill="#6B6A64" text-anchor="middle" font-weight="400">6</text><rect x="710.0" y="72.0" width="20.0" height="20.0" fill="#FBF1E9"/><text x="720.0" y="85.0" font-family="Noto Sans CJK KR" font-size="8" fill="#6B6A64" text-anchor="middle" font-weight="400">7</text><rect x="730.0" y="72.0" width="20.0" height="20.0" fill="#FBF1E9"/><text x="740.0" y="85.0" font-family="Noto Sans CJK KR" font-size="8" fill="#6B6A64" text-anchor="middle" font-weight="400">8</text><rect x="750.0" y="72.0" width="20.0" height="20.0" fill="#F4F0E7"/><text x="760.0" y="85.0" font-family="Noto Sans CJK KR" font-size="8" fill="#6B6A64" text-anchor="middle" font-weight="400">9</text><rect x="770.0" y="72.0" width="20.0" height="20.0" fill="#F4F0E7"/><text x="780.0" y="85.0" font-family="Noto Sans CJK KR" font-size="8" fill="#6B6A64" text-anchor="middle" font-weight="400">10</text><rect x="790.0" y="72.0" width="20.0" height="20.0" fill="#F4F0E7"/><text x="800.0" y="85.0" font-family="Noto Sans CJK KR" font-size="8" fill="#6B6A64" text-anchor="middle" font-weight="400">11</text><rect x="810.0" y="72.0" width="20.0" height="20.0" fill="#ECF0F6"/><text x="820.0" y="85.0" font-family="Noto Sans CJK KR" font-size="8" fill="#6B6A64" text-anchor="middle" font-weight="400">12</text><rect x="830.0" y="72.0" width="20.0" height="20.0" fill="#ECF0F6"/><text x="840.0" y="85.0" font-family="Noto Sans CJK KR" font-size="8" fill="#6B6A64" text-anchor="middle" font-weight="400">1</text><rect x="850.0" y="72.0" width="20.0" height="20.0" fill="#ECF0F6"/><text x="860.0" y="85.0" font-family="Noto Sans CJK KR" font-size="8" fill="#6B6A64" text-anchor="middle" font-weight="400">2</text><rect x="870.0" y="72.0" width="20.0" height="20.0" fill="#EEF4EC"/><text x="880.0" y="85.0" font-family="Noto Sans CJK KR" font-size="8" fill="#6B6A64" text-anchor="middle" font-weight="400">3</text><rect x="890.0" y="72.0" width="20.0" height="20.0" fill="#EEF4EC"/><text x="900.0" y="85.0" font-family="Noto Sans CJK KR" font-size="8" fill="#6B6A64" text-anchor="middle" font-weight="400">4</text><rect x="910.0" y="72.0" width="20.0" height="20.0" fill="#EEF4EC"/><text x="920.0" y="85.0" font-family="Noto Sans CJK KR" font-size="8" fill="#6B6A64" text-anchor="middle" font-weight="400">5</text><rect x="930.0" y="72.0" width="20.0" height="20.0" fill="#FBF1E9"/><text x="940.0" y="85.0" font-family="Noto Sans CJK KR" font-size="8" fill="#6B6A64" text-anchor="middle" font-weight="400">6</text><rect x="950.0" y="72.0" width="20.0" height="20.0" fill="#FBF1E9"/><text x="960.0" y="85.0" font-family="Noto Sans CJK KR" font-size="8" fill="#6B6A64" text-anchor="middle" font-weight="400">7</text><rect x="970.0" y="72.0" width="20.0" height="20.0" fill="#FBF1E9"/><text x="980.0" y="85.0" font-family="Noto Sans CJK KR" font-size="8" fill="#6B6A64" text-anchor="middle" font-weight="400">8</text><rect x="990.0" y="72.0" width="20.0" height="20.0" fill="#F4F0E7"/><text x="1000.0" y="85.0" font-family="Noto Sans CJK KR" font-size="8" fill="#6B6A64" text-anchor="middle" font-weight="400">9</text><rect x="1010.0" y="72.0" width="20.0" height="20.0" fill="#F4F0E7"/><text x="1020.0" y="85.0" font-family="Noto Sans CJK KR" font-size="8" fill="#6B6A64" text-anchor="middle" font-weight="400">10</text><rect x="1030.0" y="72.0" width="20.0" height="20.0" fill="#F4F0E7"/><text x="1040.0" y="85.0" font-family="Noto Sans CJK KR" font-size="8" fill="#6B6A64" text-anchor="middle" font-weight="400">11</text><rect x="1050.0" y="72.0" width="20.0" height="20.0" fill="#ECF0F6"/><text x="1060.0" y="85.0" font-family="Noto Sans CJK KR" font-size="8" fill="#6B6A64" text-anchor="middle" font-weight="400">12</text><rect x="1070.0" y="72.0" width="20.0" height="20.0" fill="#ECF0F6"/><text x="1080.0" y="85.0" font-family="Noto Sans CJK KR" font-size="8" fill="#6B6A64" text-anchor="middle" font-weight="400">1</text><rect x="1090.0" y="72.0" width="20.0" height="20.0" fill="#ECF0F6"/><text x="1100.0" y="85.0" font-family="Noto Sans CJK KR" font-size="8" fill="#6B6A64" text-anchor="middle" font-weight="400">2</text><rect x="1110.0" y="72.0" width="20.0" height="20.0" fill="#EEF4EC"/><text x="1120.0" y="85.0" font-family="Noto Sans CJK KR" font-size="8" fill="#6B6A64" text-anchor="middle" font-weight="400">3</text><rect x="1130.0" y="72.0" width="20.0" height="20.0" fill="#EEF4EC"/><text x="1140.0" y="85.0" font-family="Noto Sans CJK KR" font-size="8" fill="#6B6A64" text-anchor="middle" font-weight="400">4</text><rect x="1150.0" y="72.0" width="20.0" height="20.0" fill="#EEF4EC"/><text x="1160.0" y="85.0" font-family="Noto Sans CJK KR" font-size="8" fill="#6B6A64" text-anchor="middle" font-weight="400">5</text><rect x="1170.0" y="72.0" width="20.0" height="20.0" fill="#FBF1E9"/><text x="1180.0" y="85.0" font-family="Noto Sans CJK KR" font-size="8" fill="#6B6A64" text-anchor="middle" font-weight="400">6</text><rect x="1190.0" y="72.0" width="20.0" height="20.0" fill="#FBF1E9"/><text x="1200.0" y="85.0" font-family="Noto Sans CJK KR" font-size="8" fill="#6B6A64" text-anchor="middle" font-weight="400">7</text><rect x="1210.0" y="72.0" width="20.0" height="20.0" fill="#FBF1E9"/><text x="1220.0" y="85.0" font-family="Noto Sans CJK KR" font-size="8" fill="#6B6A64" text-anchor="middle" font-weight="400">8</text><rect x="1230.0" y="72.0" width="20.0" height="20.0" fill="#F4F0E7"/><text x="1240.0" y="85.0" font-family="Noto Sans CJK KR" font-size="8" fill="#6B6A64" text-anchor="middle" font-weight="400">9</text><rect x="1250.0" y="72.0" width="20.0" height="20.0" fill="#F4F0E7"/><text x="1260.0" y="85.0" font-family="Noto Sans CJK KR" font-size="8" fill="#6B6A64" text-anchor="middle" font-weight="400">10</text><rect x="1270.0" y="72.0" width="20.0" height="20.0" fill="#F4F0E7"/><text x="1280.0" y="85.0" font-family="Noto Sans CJK KR" font-size="8" fill="#6B6A64" text-anchor="middle" font-weight="400">11</text><rect x="1290.0" y="72.0" width="20.0" height="20.0" fill="#ECF0F6"/><text x="1300.0" y="85.0" font-family="Noto Sans CJK KR" font-size="8" fill="#6B6A64" text-anchor="middle" font-weight="400">12</text><rect x="1310.0" y="72.0" width="20.0" height="20.0" fill="#ECF0F6"/><text x="1320.0" y="85.0" font-family="Noto Sans CJK KR" font-size="8" fill="#6B6A64" text-anchor="middle" font-weight="400">1</text><rect x="1330.0" y="72.0" width="20.0" height="20.0" fill="#ECF0F6"/><text x="1340.0" y="85.0" font-family="Noto Sans CJK KR" font-size="8" fill="#6B6A64" text-anchor="middle" font-weight="400">2</text><line x1="150.0" y1="50.0" x2="150.0" y2="92.0" stroke="#C9C7BD" stroke-width="1"/><text x="270.0" y="65.0" font-family="Noto Sans CJK KR" font-size="13" fill="#2C2C2A" text-anchor="middle" font-weight="500">초5</text><line x1="390.0" y1="50.0" x2="390.0" y2="92.0" stroke="#C9C7BD" stroke-width="1"/><text x="510.0" y="65.0" font-family="Noto Sans CJK KR" font-size="13" fill="#2C2C2A" text-anchor="middle" font-weight="500">초6</text><line x1="630.0" y1="50.0" x2="630.0" y2="92.0" stroke="#C9C7BD" stroke-width="1"/><text x="750.0" y="65.0" font-family="Noto Sans CJK KR" font-size="13" fill="#2C2C2A" text-anchor="middle" font-weight="500">중1</text><line x1="870.0" y1="50.0" x2="870.0" y2="92.0" stroke="#C9C7BD" stroke-width="1"/><text x="990.0" y="65.0" font-family="Noto Sans CJK KR" font-size="13" fill="#2C2C2A" text-anchor="middle" font-weight="500">중2</text><line x1="1110.0" y1="50.0" x2="1110.0" y2="92.0" stroke="#C9C7BD" stroke-width="1"/><text x="1230.0" y="65.0" font-family="Noto Sans CJK KR" font-size="13" fill="#2C2C2A" text-anchor="middle" font-weight="500">중3</text><line x1="1350.0" y1="50.0" x2="1350.0" y2="92.0" stroke="#C9C7BD" stroke-width="1"/><line x1="150.0" y1="72.0" x2="1350.0" y2="72.0" stroke="#C9C7BD" stroke-width="1"/><rect x="20.0" y="100.0" width="124.0" height="70.0" fill="#F6F5F0"/><rect x="20.0" y="100.0" width="4.0" height="70.0" fill="#888780"/><text x="31.0" y="139.0" font-family="Noto Sans CJK KR" font-size="12" fill="#2C2C2A" text-anchor="start" font-weight="500">영재학교</text><line x1="150.0" y1="100.0" x2="150.0" y2="170.0" stroke="#C9C7BD" stroke-width="1"/><line x1="210.0" y1="100.0" x2="210.0" y2="170.0" stroke="#E2E0D8" stroke-width="1"/><line x1="270.0" y1="100.0" x2="270.0" y2="170.0" stroke="#E2E0D8" stroke-width="1"/><line x1="330.0" y1="100.0" x2="330.0" y2="170.0" stroke="#E2E0D8" stroke-width="1"/><line x1="390.0" y1="100.0" x2="390.0" y2="170.0" stroke="#C9C7BD" stroke-width="1"/><line x1="450.0" y1="100.0" x2="450.0" y2="170.0" stroke="#E2E0D8" stroke-width="1"/><line x1="510.0" y1="100.0" x2="510.0" y2="170.0" stroke="#E2E0D8" stroke-width="1"/><line x1="570.0" y1="100.0" x2="570.0" y2="170.0" stroke="#E2E0D8" stroke-width="1"/><line x1="630.0" y1="100.0" x2="630.0" y2="170.0" stroke="#C9C7BD" stroke-width="1"/><line x1="690.0" y1="100.0" x2="690.0" y2="170.0" stroke="#E2E0D8" stroke-width="1"/><line x1="750.0" y1="100.0" x2="750.0" y2="170.0" stroke="#E2E0D8" stroke-width="1"/><line x1="810.0" y1="100.0" x2="810.0" y2="170.0" stroke="#E2E0D8" stroke-width="1"/><line x1="870.0" y1="100.0" x2="870.0" y2="170.0" stroke="#C9C7BD" stroke-width="1"/><line x1="930.0" y1="100.0" x2="930.0" y2="170.0" stroke="#E2E0D8" stroke-width="1"/><line x1="990.0" y1="100.0" x2="990.0" y2="170.0" stroke="#E2E0D8" stroke-width="1"/><line x1="1050.0" y1="100.0" x2="1050.0" y2="170.0" stroke="#E2E0D8" stroke-width="1"/><line x1="1110.0" y1="100.0" x2="1110.0" y2="170.0" stroke="#C9C7BD" stroke-width="1"/><line x1="1170.0" y1="100.0" x2="1170.0" y2="170.0" stroke="#E2E0D8" stroke-width="1"/><line x1="1230.0" y1="100.0" x2="1230.0" y2="170.0" stroke="#E2E0D8" stroke-width="1"/><line x1="1290.0" y1="100.0" x2="1290.0" y2="170.0" stroke="#E2E0D8" stroke-width="1"/><line x1="1350.0" y1="100.0" x2="1350.0" y2="170.0" stroke="#C9C7BD" stroke-width="1"/><rect x="691.0" y="107.0" width="178.0" height="17.0" fill="#85B7EB" rx="4"/><text x="780.0" y="119.5" font-family="Noto Sans CJK KR" font-size="10" fill="#042C53" text-anchor="middle" font-weight="400">창의수학 1단계</text><rect x="871.0" y="107.0" width="358.0" height="17.0" fill="#85B7EB" rx="4"/><text x="1050.0" y="119.5" font-family="Noto Sans CJK KR" font-size="10" fill="#042C53" text-anchor="middle" font-weight="400">KMO</text><rect x="1051.0" y="128.0" width="178.0" height="17.0" fill="#85B7EB" rx="4"/><text x="1140.0" y="140.5" font-family="Noto Sans CJK KR" font-size="10" fill="#042C53" text-anchor="middle" font-weight="400">영재 파이널 수학</text><rect x="1231.0" y="128.0" width="58.0" height="17.0" fill="#85B7EB" rx="4"/><text x="1260.0" y="134.7" font-family="Noto Sans CJK KR" font-size="8" fill="#042C53" text-anchor="middle" font-weight="400">고등수학</text><text x="1260.0" y="144.0" font-family="Noto Sans CJK KR" font-size="8" fill="#042C53" text-anchor="middle" font-weight="400">총정리</text><rect x="931.0" y="149.0" width="118.0" height="17.0" fill="#F0997B" rx="4"/><text x="990.0" y="161.5" font-family="Noto Sans CJK KR" font-size="10" fill="#4A1B0C" text-anchor="middle" font-weight="400">천체·유전 특강</text><rect x="1051.0" y="149.0" width="58.0" height="17.0" fill="#F0997B" rx="4"/><text x="1080.0" y="161.5" font-family="Noto Sans CJK KR" font-size="10" fill="#4A1B0C" text-anchor="middle" font-weight="400">중등심화</text><rect x="1111.0" y="149.0" width="118.0" height="17.0" fill="#F0997B" rx="4"/><text x="1170.0" y="161.5" font-family="Noto Sans CJK KR" font-size="10" fill="#4A1B0C" text-anchor="middle" font-weight="400">파이널 과학</text><rect x="1231.0" y="149.0" width="58.0" height="17.0" fill="#F0997B" rx="4"/><text x="1260.0" y="155.7" font-family="Noto Sans CJK KR" font-size="8" fill="#4A1B0C" text-anchor="middle" font-weight="400">물리학/화학</text><text x="1260.0" y="165.0" font-family="Noto Sans CJK KR" font-size="8" fill="#4A1B0C" text-anchor="middle" font-weight="400">총정리</text><rect x="20.0" y="176.0" width="124.0" height="50.0" fill="#F6F5F0"/><rect x="20.0" y="176.0" width="4.0" height="50.0" fill="#888780"/><text x="31.0" y="205.0" font-family="Noto Sans CJK KR" font-size="12" fill="#2C2C2A" text-anchor="start" font-weight="500">과학고</text><line x1="150.0" y1="176.0" x2="150.0" y2="226.0" stroke="#C9C7BD" stroke-width="1"/><line x1="210.0" y1="176.0" x2="210.0" y2="226.0" stroke="#E2E0D8" stroke-width="1"/><line x1="270.0" y1="176.0" x2="270.0" y2="226.0" stroke="#E2E0D8" stroke-width="1"/><line x1="330.0" y1="176.0" x2="330.0" y2="226.0" stroke="#E2E0D8" stroke-width="1"/><line x1="390.0" y1="176.0" x2="390.0" y2="226.0" stroke="#C9C7BD" stroke-width="1"/><line x1="450.0" y1="176.0" x2="450.0" y2="226.0" stroke="#E2E0D8" stroke-width="1"/><line x1="510.0" y1="176.0" x2="510.0" y2="226.0" stroke="#E2E0D8" stroke-width="1"/><line x1="570.0" y1="176.0" x2="570.0" y2="226.0" stroke="#E2E0D8" stroke-width="1"/><line x1="630.0" y1="176.0" x2="630.0" y2="226.0" stroke="#C9C7BD" stroke-width="1"/><line x1="690.0" y1="176.0" x2="690.0" y2="226.0" stroke="#E2E0D8" stroke-width="1"/><line x1="750.0" y1="176.0" x2="750.0" y2="226.0" stroke="#E2E0D8" stroke-width="1"/><line x1="810.0" y1="176.0" x2="810.0" y2="226.0" stroke="#E2E0D8" stroke-width="1"/><line x1="870.0" y1="176.0" x2="870.0" y2="226.0" stroke="#C9C7BD" stroke-width="1"/><line x1="930.0" y1="176.0" x2="930.0" y2="226.0" stroke="#E2E0D8" stroke-width="1"/><line x1="990.0" y1="176.0" x2="990.0" y2="226.0" stroke="#E2E0D8" stroke-width="1"/><line x1="1050.0" y1="176.0" x2="1050.0" y2="226.0" stroke="#E2E0D8" stroke-width="1"/><line x1="1110.0" y1="176.0" x2="1110.0" y2="226.0" stroke="#C9C7BD" stroke-width="1"/><line x1="1170.0" y1="176.0" x2="1170.0" y2="226.0" stroke="#E2E0D8" stroke-width="1"/><line x1="1230.0" y1="176.0" x2="1230.0" y2="226.0" stroke="#E2E0D8" stroke-width="1"/><line x1="1290.0" y1="176.0" x2="1290.0" y2="226.0" stroke="#E2E0D8" stroke-width="1"/><line x1="1350.0" y1="176.0" x2="1350.0" y2="226.0" stroke="#C9C7BD" stroke-width="1"/><rect x="931.0" y="183.0" width="178.0" height="17.0" fill="#85B7EB" rx="4"/><text x="1020.0" y="195.5" font-family="Noto Sans CJK KR" font-size="10" fill="#042C53" text-anchor="middle" font-weight="400">창의수학 1단계</text><rect x="1111.0" y="183.0" width="118.0" height="17.0" fill="#85B7EB" rx="4"/><text x="1170.0" y="195.5" font-family="Noto Sans CJK KR" font-size="10" fill="#042C53" text-anchor="middle" font-weight="400">창의수학 2단계</text><rect x="1231.0" y="183.0" width="58.0" height="17.0" fill="#85B7EB" rx="4"/><text x="1260.0" y="195.5" font-family="Noto Sans CJK KR" font-size="10" fill="#042C53" text-anchor="middle" font-weight="400">면접</text><rect x="1291.0" y="183.0" width="58.0" height="17.0" fill="#85B7EB" rx="4"/><text x="1320.0" y="189.7" font-family="Noto Sans CJK KR" font-size="8" fill="#042C53" text-anchor="middle" font-weight="400">고등수학 및</text><text x="1320.0" y="199.0" font-family="Noto Sans CJK KR" font-size="8" fill="#042C53" text-anchor="middle" font-weight="400">정보 총정리</text><rect x="1171.0" y="204.0" width="58.0" height="17.0" fill="#F0997B" rx="4"/><text x="1200.0" y="216.5" font-family="Noto Sans CJK KR" font-size="10" fill="#4A1B0C" text-anchor="middle" font-weight="400">중등심화</text><rect x="1231.0" y="204.0" width="58.0" height="17.0" fill="#F0997B" rx="4"/><text x="1260.0" y="216.5" font-family="Noto Sans CJK KR" font-size="10" fill="#4A1B0C" text-anchor="middle" font-weight="400">면접</text><rect x="1291.0" y="204.0" width="58.0" height="17.0" fill="#F0997B" rx="4"/><text x="1320.0" y="210.7" font-family="Noto Sans CJK KR" font-size="8" fill="#4A1B0C" text-anchor="middle" font-weight="400">고등과학</text><text x="1320.0" y="220.0" font-family="Noto Sans CJK KR" font-size="8" fill="#4A1B0C" text-anchor="middle" font-weight="400">총정리</text><rect x="20.0" y="232.0" width="124.0" height="42.0" fill="#F6F5F0"/><rect x="20.0" y="232.0" width="4.0" height="42.0" fill="#888780"/><text x="31.0" y="257.0" font-family="Noto Sans CJK KR" font-size="12" fill="#2C2C2A" text-anchor="start" font-weight="500">국제고</text><line x1="150.0" y1="232.0" x2="150.0" y2="274.0" stroke="#C9C7BD" stroke-width="1"/><line x1="210.0" y1="232.0" x2="210.0" y2="274.0" stroke="#E2E0D8" stroke-width="1"/><line x1="270.0" y1="232.0" x2="270.0" y2="274.0" stroke="#E2E0D8" stroke-width="1"/><line x1="330.0" y1="232.0" x2="330.0" y2="274.0" stroke="#E2E0D8" stroke-width="1"/><line x1="390.0" y1="232.0" x2="390.0" y2="274.0" stroke="#C9C7BD" stroke-width="1"/><line x1="450.0" y1="232.0" x2="450.0" y2="274.0" stroke="#E2E0D8" stroke-width="1"/><line x1="510.0" y1="232.0" x2="510.0" y2="274.0" stroke="#E2E0D8" stroke-width="1"/><line x1="570.0" y1="232.0" x2="570.0" y2="274.0" stroke="#E2E0D8" stroke-width="1"/><line x1="630.0" y1="232.0" x2="630.0" y2="274.0" stroke="#C9C7BD" stroke-width="1"/><line x1="690.0" y1="232.0" x2="690.0" y2="274.0" stroke="#E2E0D8" stroke-width="1"/><line x1="750.0" y1="232.0" x2="750.0" y2="274.0" stroke="#E2E0D8" stroke-width="1"/><line x1="810.0" y1="232.0" x2="810.0" y2="274.0" stroke="#E2E0D8" stroke-width="1"/><line x1="870.0" y1="232.0" x2="870.0" y2="274.0" stroke="#C9C7BD" stroke-width="1"/><line x1="930.0" y1="232.0" x2="930.0" y2="274.0" stroke="#E2E0D8" stroke-width="1"/><line x1="990.0" y1="232.0" x2="990.0" y2="274.0" stroke="#E2E0D8" stroke-width="1"/><line x1="1050.0" y1="232.0" x2="1050.0" y2="274.0" stroke="#E2E0D8" stroke-width="1"/><line x1="1110.0" y1="232.0" x2="1110.0" y2="274.0" stroke="#C9C7BD" stroke-width="1"/><line x1="1170.0" y1="232.0" x2="1170.0" y2="274.0" stroke="#E2E0D8" stroke-width="1"/><line x1="1230.0" y1="232.0" x2="1230.0" y2="274.0" stroke="#E2E0D8" stroke-width="1"/><line x1="1290.0" y1="232.0" x2="1290.0" y2="274.0" stroke="#E2E0D8" stroke-width="1"/><line x1="1350.0" y1="232.0" x2="1350.0" y2="274.0" stroke="#C9C7BD" stroke-width="1"/><rect x="1231.0" y="238.0" width="58.0" height="17.0" fill="#AFA9EC" rx="4"/><text x="1260.0" y="250.5" font-family="Noto Sans CJK KR" font-size="10" fill="#26215C" text-anchor="middle" font-weight="400">면접</text><rect x="1231.0" y="256.0" width="118.0" height="17.0" fill="#F0997B" rx="4"/><text x="1290.0" y="268.5" font-family="Noto Sans CJK KR" font-size="10" fill="#4A1B0C" text-anchor="middle" font-weight="400">통합과학1</text><rect x="20.0" y="280.0" width="124.0" height="42.0" fill="#F6F5F0"/><rect x="20.0" y="280.0" width="4.0" height="42.0" fill="#888780"/><text x="31.0" y="305.0" font-family="Noto Sans CJK KR" font-size="12" fill="#2C2C2A" text-anchor="start" font-weight="500">외고</text><line x1="150.0" y1="280.0" x2="150.0" y2="322.0" stroke="#C9C7BD" stroke-width="1"/><line x1="210.0" y1="280.0" x2="210.0" y2="322.0" stroke="#E2E0D8" stroke-width="1"/><line x1="270.0" y1="280.0" x2="270.0" y2="322.0" stroke="#E2E0D8" stroke-width="1"/><line x1="330.0" y1="280.0" x2="330.0" y2="322.0" stroke="#E2E0D8" stroke-width="1"/><line x1="390.0" y1="280.0" x2="390.0" y2="322.0" stroke="#C9C7BD" stroke-width="1"/><line x1="450.0" y1="280.0" x2="450.0" y2="322.0" stroke="#E2E0D8" stroke-width="1"/><line x1="510.0" y1="280.0" x2="510.0" y2="322.0" stroke="#E2E0D8" stroke-width="1"/><line x1="570.0" y1="280.0" x2="570.0" y2="322.0" stroke="#E2E0D8" stroke-width="1"/><line x1="630.0" y1="280.0" x2="630.0" y2="322.0" stroke="#C9C7BD" stroke-width="1"/><line x1="690.0" y1="280.0" x2="690.0" y2="322.0" stroke="#E2E0D8" stroke-width="1"/><line x1="750.0" y1="280.0" x2="750.0" y2="322.0" stroke="#E2E0D8" stroke-width="1"/><line x1="810.0" y1="280.0" x2="810.0" y2="322.0" stroke="#E2E0D8" stroke-width="1"/><line x1="870.0" y1="280.0" x2="870.0" y2="322.0" stroke="#C9C7BD" stroke-width="1"/><line x1="930.0" y1="280.0" x2="930.0" y2="322.0" stroke="#E2E0D8" stroke-width="1"/><line x1="990.0" y1="280.0" x2="990.0" y2="322.0" stroke="#E2E0D8" stroke-width="1"/><line x1="1050.0" y1="280.0" x2="1050.0" y2="322.0" stroke="#E2E0D8" stroke-width="1"/><line x1="1110.0" y1="280.0" x2="1110.0" y2="322.0" stroke="#C9C7BD" stroke-width="1"/><line x1="1170.0" y1="280.0" x2="1170.0" y2="322.0" stroke="#E2E0D8" stroke-width="1"/><line x1="1230.0" y1="280.0" x2="1230.0" y2="322.0" stroke="#E2E0D8" stroke-width="1"/><line x1="1290.0" y1="280.0" x2="1290.0" y2="322.0" stroke="#E2E0D8" stroke-width="1"/><line x1="1350.0" y1="280.0" x2="1350.0" y2="322.0" stroke="#C9C7BD" stroke-width="1"/><rect x="1231.0" y="286.0" width="58.0" height="17.0" fill="#AFA9EC" rx="4"/><text x="1260.0" y="298.5" font-family="Noto Sans CJK KR" font-size="10" fill="#26215C" text-anchor="middle" font-weight="400">면접</text><rect x="1231.0" y="304.0" width="118.0" height="17.0" fill="#F0997B" rx="4"/><text x="1290.0" y="316.5" font-family="Noto Sans CJK KR" font-size="10" fill="#4A1B0C" text-anchor="middle" font-weight="400">통합과학1</text><rect x="20.0" y="328.0" width="124.0" height="28.0" fill="#F6F5F0"/><rect x="20.0" y="328.0" width="4.0" height="28.0" fill="#888780"/><text x="31.0" y="346.0" font-family="Noto Sans CJK KR" font-size="12" fill="#2C2C2A" text-anchor="start" font-weight="500">전사고</text><line x1="150.0" y1="328.0" x2="150.0" y2="356.0" stroke="#C9C7BD" stroke-width="1"/><line x1="210.0" y1="328.0" x2="210.0" y2="356.0" stroke="#E2E0D8" stroke-width="1"/><line x1="270.0" y1="328.0" x2="270.0" y2="356.0" stroke="#E2E0D8" stroke-width="1"/><line x1="330.0" y1="328.0" x2="330.0" y2="356.0" stroke="#E2E0D8" stroke-width="1"/><line x1="390.0" y1="328.0" x2="390.0" y2="356.0" stroke="#C9C7BD" stroke-width="1"/><line x1="450.0" y1="328.0" x2="450.0" y2="356.0" stroke="#E2E0D8" stroke-width="1"/><line x1="510.0" y1="328.0" x2="510.0" y2="356.0" stroke="#E2E0D8" stroke-width="1"/><line x1="570.0" y1="328.0" x2="570.0" y2="356.0" stroke="#E2E0D8" stroke-width="1"/><line x1="630.0" y1="328.0" x2="630.0" y2="356.0" stroke="#C9C7BD" stroke-width="1"/><line x1="690.0" y1="328.0" x2="690.0" y2="356.0" stroke="#E2E0D8" stroke-width="1"/><line x1="750.0" y1="328.0" x2="750.0" y2="356.0" stroke="#E2E0D8" stroke-width="1"/><line x1="810.0" y1="328.0" x2="810.0" y2="356.0" stroke="#E2E0D8" stroke-width="1"/><line x1="870.0" y1="328.0" x2="870.0" y2="356.0" stroke="#C9C7BD" stroke-width="1"/><line x1="930.0" y1="328.0" x2="930.0" y2="356.0" stroke="#E2E0D8" stroke-width="1"/><line x1="990.0" y1="328.0" x2="990.0" y2="356.0" stroke="#E2E0D8" stroke-width="1"/><line x1="1050.0" y1="328.0" x2="1050.0" y2="356.0" stroke="#E2E0D8" stroke-width="1"/><line x1="1110.0" y1="328.0" x2="1110.0" y2="356.0" stroke="#C9C7BD" stroke-width="1"/><line x1="1170.0" y1="328.0" x2="1170.0" y2="356.0" stroke="#E2E0D8" stroke-width="1"/><line x1="1230.0" y1="328.0" x2="1230.0" y2="356.0" stroke="#E2E0D8" stroke-width="1"/><line x1="1290.0" y1="328.0" x2="1290.0" y2="356.0" stroke="#E2E0D8" stroke-width="1"/><line x1="1350.0" y1="328.0" x2="1350.0" y2="356.0" stroke="#C9C7BD" stroke-width="1"/><rect x="1231.0" y="333.0" width="118.0" height="17.0" fill="#F0997B" rx="4"/><text x="1290.0" y="345.5" font-family="Noto Sans CJK KR" font-size="10" fill="#4A1B0C" text-anchor="middle" font-weight="400">통합과학1</text><line x1="20.0" y1="368.0" x2="1350.0" y2="368.0" stroke="#C9C7BD" stroke-width="1"/><text x="20.0" y="383.0" font-family="Noto Sans CJK KR" font-size="12" fill="#2C2C2A" text-anchor="start" font-weight="500">교과 과정</text><text x="150.0" y="383.0" font-family="Noto Sans CJK KR" font-size="11" fill="#6B6A64" text-anchor="start" font-weight="400">교육과정 순서대로 (학년·시기 무관) · 앱에서는 학생 진도를 현재 월에 맞춰 투영</text><rect x="20.0" y="392.0" width="124.0" height="30.0" fill="#F6F5F0"/><rect x="20.0" y="392.0" width="4.0" height="30.0" fill="#888780"/><text x="31.0" y="411.0" font-family="Noto Sans CJK KR" font-size="12" fill="#2C2C2A" text-anchor="start" font-weight="500">수학 교과</text><rect x="150.0" y="392.0" width="92.3" height="30.0" fill="#D3D1C7"/><text x="196.2" y="411.0" font-family="Noto Sans CJK KR" font-size="11" fill="#2C2C2A" text-anchor="middle" font-weight="400">중1-1학기</text><rect x="242.3" y="392.0" width="92.3" height="30.0" fill="#D3D1C7"/><line x1="242.3" y1="392.0" x2="242.3" y2="422.0" stroke="#B4B2A9" stroke-width="1"/><text x="288.5" y="411.0" font-family="Noto Sans CJK KR" font-size="11" fill="#2C2C2A" text-anchor="middle" font-weight="400">중1-2학기</text><rect x="334.6" y="392.0" width="92.3" height="30.0" fill="#D3D1C7"/><line x1="334.6" y1="392.0" x2="334.6" y2="422.0" stroke="#B4B2A9" stroke-width="1"/><text x="380.8" y="411.0" font-family="Noto Sans CJK KR" font-size="11" fill="#2C2C2A" text-anchor="middle" font-weight="400">중2-1학기</text><rect x="426.9" y="392.0" width="92.3" height="30.0" fill="#D3D1C7"/><line x1="426.9" y1="392.0" x2="426.9" y2="422.0" stroke="#B4B2A9" stroke-width="1"/><text x="473.1" y="411.0" font-family="Noto Sans CJK KR" font-size="11" fill="#2C2C2A" text-anchor="middle" font-weight="400">중2-2학기</text><rect x="519.2" y="392.0" width="92.3" height="30.0" fill="#D3D1C7"/><line x1="519.2" y1="392.0" x2="519.2" y2="422.0" stroke="#B4B2A9" stroke-width="1"/><text x="565.4" y="411.0" font-family="Noto Sans CJK KR" font-size="11" fill="#2C2C2A" text-anchor="middle" font-weight="400">중3-1학기</text><rect x="611.5" y="392.0" width="92.3" height="30.0" fill="#D3D1C7"/><line x1="611.5" y1="392.0" x2="611.5" y2="422.0" stroke="#B4B2A9" stroke-width="1"/><text x="657.7" y="411.0" font-family="Noto Sans CJK KR" font-size="11" fill="#2C2C2A" text-anchor="middle" font-weight="400">중3-2학기</text><rect x="703.8" y="392.0" width="92.3" height="30.0" fill="#D3D1C7"/><line x1="703.8" y1="392.0" x2="703.8" y2="422.0" stroke="#888780" stroke-width="2"/><text x="750.0" y="411.0" font-family="Noto Sans CJK KR" font-size="11" fill="#2C2C2A" text-anchor="middle" font-weight="400">공통수학1</text><rect x="796.2" y="392.0" width="92.3" height="30.0" fill="#D3D1C7"/><line x1="796.2" y1="392.0" x2="796.2" y2="422.0" stroke="#B4B2A9" stroke-width="1"/><text x="842.3" y="411.0" font-family="Noto Sans CJK KR" font-size="11" fill="#2C2C2A" text-anchor="middle" font-weight="400">공통수학2</text><rect x="888.5" y="392.0" width="92.3" height="30.0" fill="#D3D1C7"/><line x1="888.5" y1="392.0" x2="888.5" y2="422.0" stroke="#B4B2A9" stroke-width="1"/><text x="934.6" y="411.0" font-family="Noto Sans CJK KR" font-size="11" fill="#2C2C2A" text-anchor="middle" font-weight="400">대수</text><rect x="980.8" y="392.0" width="92.3" height="30.0" fill="#D3D1C7"/><line x1="980.8" y1="392.0" x2="980.8" y2="422.0" stroke="#B4B2A9" stroke-width="1"/><text x="1026.9" y="411.0" font-family="Noto Sans CJK KR" font-size="11" fill="#2C2C2A" text-anchor="middle" font-weight="400">미적분Ⅰ</text><rect x="1073.1" y="392.0" width="92.3" height="30.0" fill="#D3D1C7"/><line x1="1073.1" y1="392.0" x2="1073.1" y2="422.0" stroke="#B4B2A9" stroke-width="1"/><text x="1119.2" y="411.0" font-family="Noto Sans CJK KR" font-size="11" fill="#2C2C2A" text-anchor="middle" font-weight="400">확률과 통계</text><rect x="1165.4" y="392.0" width="92.3" height="30.0" fill="#D3D1C7"/><line x1="1165.4" y1="392.0" x2="1165.4" y2="422.0" stroke="#B4B2A9" stroke-width="1"/><text x="1211.5" y="411.0" font-family="Noto Sans CJK KR" font-size="11" fill="#2C2C2A" text-anchor="middle" font-weight="400">미적분Ⅱ</text><rect x="1257.7" y="392.0" width="92.3" height="30.0" fill="#D3D1C7"/><line x1="1257.7" y1="392.0" x2="1257.7" y2="422.0" stroke="#B4B2A9" stroke-width="1"/><text x="1303.8" y="411.0" font-family="Noto Sans CJK KR" font-size="11" fill="#2C2C2A" text-anchor="middle" font-weight="400">기하</text><rect x="150.0" y="392.0" width="1200.0" height="30.0" fill="none" rx="4" stroke="#B4B2A9" stroke-width="1"/><rect x="20.0" y="428.0" width="124.0" height="96.0" fill="#F6F5F0"/><rect x="20.0" y="428.0" width="4.0" height="96.0" fill="#888780"/><text x="31.0" y="480.0" font-family="Noto Sans CJK KR" font-size="12" fill="#2C2C2A" text-anchor="start" font-weight="500">과학 교과</text><rect x="150.0" y="428.0" width="92.3" height="96.0" fill="#D3D1C7"/><text x="196.2" y="480.0" font-family="Noto Sans CJK KR" font-size="11" fill="#2C2C2A" text-anchor="middle" font-weight="400">중1-1학기</text><rect x="242.3" y="428.0" width="92.3" height="96.0" fill="#D3D1C7"/><line x1="242.3" y1="428.0" x2="242.3" y2="524.0" stroke="#B4B2A9" stroke-width="1"/><text x="288.5" y="480.0" font-family="Noto Sans CJK KR" font-size="11" fill="#2C2C2A" text-anchor="middle" font-weight="400">중1-2학기</text><rect x="334.6" y="428.0" width="92.3" height="96.0" fill="#D3D1C7"/><line x1="334.6" y1="428.0" x2="334.6" y2="524.0" stroke="#B4B2A9" stroke-width="1"/><text x="380.8" y="480.0" font-family="Noto Sans CJK KR" font-size="11" fill="#2C2C2A" text-anchor="middle" font-weight="400">중2-1학기</text><rect x="426.9" y="428.0" width="92.3" height="96.0" fill="#D3D1C7"/><line x1="426.9" y1="428.0" x2="426.9" y2="524.0" stroke="#B4B2A9" stroke-width="1"/><text x="473.1" y="480.0" font-family="Noto Sans CJK KR" font-size="11" fill="#2C2C2A" text-anchor="middle" font-weight="400">중2-2학기</text><rect x="519.2" y="428.0" width="92.3" height="96.0" fill="#D3D1C7"/><line x1="519.2" y1="428.0" x2="519.2" y2="524.0" stroke="#B4B2A9" stroke-width="1"/><text x="565.4" y="480.0" font-family="Noto Sans CJK KR" font-size="11" fill="#2C2C2A" text-anchor="middle" font-weight="400">중3-1학기</text><rect x="611.5" y="428.0" width="92.3" height="96.0" fill="#D3D1C7"/><line x1="611.5" y1="428.0" x2="611.5" y2="524.0" stroke="#B4B2A9" stroke-width="1"/><text x="657.7" y="480.0" font-family="Noto Sans CJK KR" font-size="11" fill="#2C2C2A" text-anchor="middle" font-weight="400">중3-2학기</text><rect x="150.0" y="428.0" width="553.8" height="96.0" fill="none" rx="4" stroke="#B4B2A9" stroke-width="1"/><line x1="703.8" y1="428.0" x2="703.8" y2="524.0" stroke="#888780" stroke-width="2"/><rect x="704.8" y="430.0" width="90.3" height="20.0" fill="#D3D1C7" rx="4" stroke="#B4B2A9" stroke-width="0.8"/><text x="750.0" y="444.0" font-family="Noto Sans CJK KR" font-size="11" fill="#2C2C2A" text-anchor="middle" font-weight="400">물리학</text><rect x="704.8" y="454.0" width="90.3" height="20.0" fill="#D3D1C7" rx="4" stroke="#B4B2A9" stroke-width="0.8"/><text x="750.0" y="468.0" font-family="Noto Sans CJK KR" font-size="11" fill="#2C2C2A" text-anchor="middle" font-weight="400">화학</text><rect x="704.8" y="478.0" width="90.3" height="20.0" fill="#D3D1C7" rx="4" stroke="#B4B2A9" stroke-width="0.8"/><text x="750.0" y="492.0" font-family="Noto Sans CJK KR" font-size="11" fill="#2C2C2A" text-anchor="middle" font-weight="400">생명과학</text><rect x="704.8" y="502.0" width="90.3" height="20.0" fill="#D3D1C7" rx="4" stroke="#B4B2A9" stroke-width="0.8"/><text x="750.0" y="516.0" font-family="Noto Sans CJK KR" font-size="11" fill="#2C2C2A" text-anchor="middle" font-weight="400">지구과학</text><rect x="20.0" y="543.0" width="13.0" height="13.0" fill="#85B7EB" rx="3"/><text x="39.0" y="554.0" font-family="Noto Sans CJK KR" font-size="12" fill="#6B6A64" text-anchor="start" font-weight="400">수학 과정</text><rect x="140.0" y="543.0" width="13.0" height="13.0" fill="#F0997B" rx="3"/><text x="159.0" y="554.0" font-family="Noto Sans CJK KR" font-size="12" fill="#6B6A64" text-anchor="start" font-weight="400">과학 과정</text><rect x="260.0" y="543.0" width="13.0" height="13.0" fill="#AFA9EC" rx="3"/><text x="279.0" y="554.0" font-family="Noto Sans CJK KR" font-size="12" fill="#6B6A64" text-anchor="start" font-weight="400">면접·일반</text><rect x="380.0" y="543.0" width="13.0" height="13.0" fill="#D3D1C7" rx="3"/><text x="399.0" y="554.0" font-family="Noto Sans CJK KR" font-size="12" fill="#6B6A64" text-anchor="start" font-weight="400">교과</text></g></svg>